<?xml version="1.0" encoding="UTF-8" standalone="no"?> <svg xmlns="http://www.w3.org/2000/svg" version="1.1" viewBox="0.00 0.00 512.00 204.00"><path fill="#ffffff" d=" M 66.88 0.00 Q 67.40 0.14 67.72 0.44 Q 67.99 0.70 67.99 1.25 Q 68.09 60.10 67.99 120.93 A 0.45 0.45 0.0 0 0 68.44 121.38 L 94.23 121.38 Q 94.73 121.38 94.73 120.88 L 94.74 0.00 L 161.92 0.00 L 162.01 120.84 Q 162.01 121.38 162.55 121.38 L 173.99 121.38 Q 174.37 121.38 174.37 121.76 L 174.34 204.00 L 173.63 204.00 Q 172.87 203.69 172.55 204.00 L 117.37 204.00 Q 116.52 203.71 115.83 204.00 L 115.08 204.00 L 114.98 176.80 Q 114.98 176.00 114.18 176.00 L 0.00 175.94 L 0.00 1.33 Q -0.03 0.04 2.50 0.00 L 66.88 0.00 Z"></path><path fill="#ffffff" d=" M 319.22 0.00 L 319.21 49.13 Q 319.21 49.63 318.72 49.63 L 256.05 49.63 Q 255.48 49.63 255.48 50.19 L 255.48 67.24 Q 255.48 67.87 256.12 67.87 L 316.41 67.87 Q 317.00 67.87 317.00 68.46 L 317.00 108.56 Q 317.00 109.12 316.44 109.12 L 256.10 109.12 Q 255.49 109.12 255.49 109.73 L 255.49 125.98 Q 255.49 126.63 256.13 126.63 L 318.81 126.63 A 0.43 0.43 0.0 0 1 319.24 127.06 L 319.24 175.77 A 0.24 0.23 -0.0 0 1 319.00 176.00 L 187.78 176.00 Q 187.28 176.00 187.28 175.50 L 187.26 0.00 L 319.22 0.00 Z"></path><path fill="#ffffff" d=" M 406.56 0.00 L 413.92 60.81 A 0.17 0.16 -4.3 0 1 413.75 61.00 L 353.23 61.00 Q 352.65 61.00 352.49 60.44 L 335.32 0.00 L 406.56 0.00 Z"></path><path fill="#ffffff" d=" M 503.95 0.00 L 486.63 60.67 A 0.45 0.45 0.0 0 1 486.20 61.00 L 425.57 61.00 Q 425.07 61.00 425.13 60.50 L 432.68 0.00 L 503.95 0.00 Z"></path><path fill="#ffffff" d=" M 368.43 74.74 Q 368.87 74.74 369.43 74.97 Q 369.92 75.17 370.13 75.66 L 380.99 100.20 A 0.57 0.57 0.0 0 1 380.47 100.99 L 374.73 100.99 Q 374.20 100.99 373.97 100.50 L 373.11 98.67 Q 372.93 98.28 372.26 98.26 Q 371.85 98.25 368.43 98.25 Q 365.01 98.25 364.60 98.26 Q 363.93 98.28 363.75 98.67 L 362.89 100.50 Q 362.66 100.99 362.13 100.99 L 356.39 100.99 A 0.57 0.57 0.0 0 1 355.87 100.20 L 366.72 75.66 Q 366.93 75.17 367.42 74.97 Q 367.98 74.74 368.43 74.74 Z M 366.03 92.42 A 0.32 0.32 0.0 0 0 366.32 92.85 L 370.52 92.88 A 0.32 0.32 0.0 0 0 370.83 92.45 L 368.77 86.79 A 0.32 0.32 0.0 0 0 368.17 86.78 L 366.03 92.42 Z"></path><path fill="#ffffff" d=" M 449.00 89.09 A 0.35 0.35 0.0 0 0 448.43 88.82 L 433.57 101.46 A 0.88 0.88 0.0 0 1 432.12 100.79 L 432.12 76.00 Q 432.12 75.13 432.99 75.13 L 438.05 75.13 Q 438.73 75.13 438.73 75.82 L 438.73 87.49 Q 438.73 88.10 439.20 87.70 L 454.32 74.86 A 0.86 0.86 0.0 0 1 455.74 75.51 L 455.74 100.26 A 0.74 0.74 0.0 0 1 455.00 101.00 L 449.76 101.00 Q 449.00 101.00 449.00 100.24 L 449.00 89.09 Z"></path><path fill="#ffffff" d=" M 512.00 99.92 L 512.00 100.76 L 505.64 100.89 A 0.78 0.78 0.0 0 1 504.91 100.42 L 504.15 98.71 Q 503.95 98.24 503.43 98.24 L 495.48 98.24 Q 494.94 98.24 494.73 98.73 L 494.02 100.32 Q 493.73 100.99 492.99 100.99 L 487.33 100.99 A 0.52 0.51 11.8 0 1 486.85 100.27 L 497.73 75.68 A 1.83 1.83 0.0 0 1 501.07 75.67 L 512.00 99.92 Z M 497.06 92.43 A 0.32 0.32 0.0 0 0 497.36 92.87 L 501.56 92.87 A 0.32 0.32 0.0 0 0 501.86 92.44 L 499.77 86.78 A 0.32 0.32 0.0 0 0 499.17 86.78 L 497.06 92.43 Z"></path><path fill="#ffffff" d=" M 341.24 75.12 Q 343.43 75.12 343.72 75.15 Q 344.35 75.22 344.41 75.59 L 344.61 76.73 Q 344.71 77.27 345.26 77.33 C 351.24 77.98 355.54 82.07 355.53 88.07 C 355.53 94.07 351.22 98.15 345.23 98.79 Q 344.69 98.85 344.59 99.39 L 344.38 100.53 Q 344.32 100.90 343.69 100.96 Q 343.40 100.99 341.21 100.99 Q 339.03 100.99 338.73 100.96 Q 338.10 100.89 338.04 100.52 L 337.84 99.38 Q 337.74 98.84 337.20 98.78 C 331.21 98.12 326.91 94.04 326.92 88.04 C 326.93 82.03 331.23 77.96 337.22 77.32 Q 337.77 77.26 337.87 76.72 L 338.07 75.58 Q 338.13 75.21 338.76 75.15 Q 339.06 75.11 341.24 75.12 Z M 337.87 92.40 L 337.87 83.74 A 0.18 0.18 0.0 0 0 337.69 83.56 L 337.57 83.56 A 4.41 3.92 90.0 0 0 333.65 87.97 L 333.65 88.17 A 4.41 3.92 -90.0 0 0 337.57 92.58 L 337.69 92.58 A 0.18 0.18 0.0 0 0 337.87 92.40 Z M 344.62 83.78 L 344.64 92.38 A 0.17 0.17 0.0 0 0 344.81 92.55 L 344.90 92.55 A 4.29 3.92 89.9 0 0 348.81 88.26 L 348.81 87.90 A 4.29 3.92 89.9 0 0 344.88 83.61 L 344.79 83.61 A 0.17 0.17 0.0 0 0 344.62 83.78 Z"></path><path fill="#ffffff" d=" M 391.06 81.12 Q 390.75 81.12 390.75 81.43 L 390.75 83.98 Q 390.75 84.33 391.09 84.30 Q 400.04 83.54 402.67 88.32 C 406.10 94.52 401.86 100.83 394.97 100.97 Q 389.78 101.07 384.62 100.94 Q 384.13 100.93 384.13 100.44 L 384.13 75.75 A 0.62 0.62 0.0 0 1 384.75 75.13 L 400.74 75.13 Q 401.36 75.13 401.36 75.75 L 401.36 80.50 A 0.62 0.62 0.0 0 1 400.74 81.12 L 391.06 81.12 Z M 390.76 90.46 L 390.73 94.78 A 0.35 0.35 0.0 0 0 391.07 95.13 L 394.52 95.15 A 2.74 2.39 0.4 0 0 397.28 92.78 L 397.28 92.54 A 2.74 2.39 0.4 0 0 394.56 90.13 L 391.11 90.11 A 0.35 0.35 0.0 0 0 390.76 90.46 Z"></path><path fill="#ffffff" d=" M 469.96 82.78 L 475.00 75.50 A 0.51 0.51 0.0 0 1 475.42 75.28 L 482.21 75.28 A 0.51 0.51 0.0 0 1 482.63 76.08 L 476.25 85.32 A 0.51 0.51 0.0 0 0 476.24 85.89 L 485.37 100.21 A 0.51 0.51 0.0 0 1 484.94 100.99 L 478.31 100.99 A 0.51 0.51 0.0 0 1 477.88 100.75 L 470.53 89.23 A 0.51 0.51 0.0 0 0 470.10 88.99 L 467.87 88.99 A 0.51 0.51 0.0 0 0 467.36 89.50 L 467.36 100.49 A 0.51 0.51 0.0 0 1 466.85 101.00 L 461.26 101.00 A 0.51 0.51 0.0 0 1 460.75 100.49 L 460.75 75.64 A 0.51 0.51 0.0 0 1 461.26 75.13 L 466.85 75.13 A 0.51 0.51 0.0 0 1 467.36 75.64 L 467.36 82.49 A 0.51 0.51 0.0 0 0 467.87 83.00 L 469.54 83.00 A 0.51 0.51 0.0 0 0 469.96 82.78 Z"></path><path fill="#ffffff" d=" M 414.22 96.30 L 414.22 100.24 Q 414.22 100.99 413.48 100.99 L 408.29 100.99 A 0.78 0.78 0.0 0 1 407.51 100.21 L 407.51 76.31 A 1.05 1.05 0.0 0 1 408.58 75.26 Q 413.32 75.32 415.63 75.22 Q 419.66 75.05 422.51 76.41 Q 428.31 79.19 428.37 85.62 Q 428.40 88.89 426.55 91.46 C 423.84 95.23 419.59 96.20 414.75 95.81 Q 414.22 95.77 414.22 96.30 Z M 414.24 81.45 L 414.22 89.65 A 0.33 0.33 0.0 0 0 414.55 89.98 L 416.70 89.99 A 5.04 4.19 0.1 0 0 421.75 85.81 L 421.75 85.33 A 5.04 4.19 0.1 0 0 416.72 81.13 L 414.57 81.12 A 0.33 0.33 0.0 0 0 414.24 81.45 Z"></path><path fill="#ffffff" d=" M 351.14 114.63 L 414.00 114.63 A 0.35 0.35 0.0 0 1 414.34 115.04 L 403.02 175.71 A 0.35 0.35 0.0 0 1 402.68 176.00 L 331.90 176.00 A 0.35 0.35 0.0 0 1 331.56 175.54 L 350.80 114.87 A 0.35 0.35 0.0 0 1 351.14 114.63 Z"></path><path fill="#ffffff" d=" M 425.08 114.63 L 488.28 114.63 A 0.39 0.39 0.0 0 1 488.66 114.90 L 507.95 175.49 A 0.39 0.39 0.0 0 1 507.58 176.00 L 436.87 176.00 A 0.39 0.39 0.0 0 1 436.49 175.68 L 424.70 115.09 A 0.39 0.39 0.0 0 1 425.08 114.63 Z"></path></svg> 